<?xml version="1.0" encoding="UTF-8"?>
<svg id="_图层_2" data-name="图层 2" xmlns="http://www.w3.org/2000/svg" xmlns:xlink="http://www.w3.org/1999/xlink" viewBox="0 0 96.54 96.54">
  <defs>
    <style>
      .cls-1 {
        fill: #e04012;
      }

      .cls-2, .cls-3 {
        fill: #fff;
      }

      .cls-4 {
        fill: #1e83c4;
      }

      .cls-3 {
        stroke: url(#_未命名的渐变_12);
        stroke-miterlimit: 10;
        stroke-width: 4px;
      }
    </style>
    <linearGradient id="_未命名的渐变_12" data-name="未命名的渐变 12" x1="4.09" y1="4.09" x2="92.45" y2="92.45" gradientUnits="userSpaceOnUse">
      <stop offset=".24" stop-color="#1e83c4"/>
      <stop offset=".82" stop-color="#e04012"/>
    </linearGradient>
  </defs>
  <g id="_图层_1-2" data-name="图层 1">
    <g>
      <rect class="cls-3" x="2" y="2" width="92.54" height="92.54" rx="11.97" ry="11.97"/>
      <g>
        <path class="cls-4" d="M22.03,14.72c19.07,1.6,30.67,23.11,20.93,39.79-3.43,5.88-8.76,9.3-14.82,12.08l16.76,14.84c-2.67.04-5.35.77-8.03.17l-15.02-13.62-1.05-.52v13.97h-5.59V14.72c2.22.13,4.62-.18,6.81,0Z"/>
        <path class="cls-1" d="M73.9,80.38c-.28-14.42.21-28.89,0-43.31h-11.18v44.71h-5.41c-.29,0-.62-.85-.54-1.2l.04-43.29c-.06-.33-1.07-.16-1.58-.93-.18-.27-2.51-5.05-2.28-5.22.66-.51,3.84-.16,3.84-.35V14.72h5.94v15.19c0,.99,2.1,1.15,2.97,1.22,1.1.09,7.77.06,8.19-.36.1-4.88-.08-9.78.02-14.65-.59-1.91,5.36-1.38,5.57-1.14.08.09.06.25.02.44.31,21.09.31,43.57,0,64.79.79,2.14-5.59,2.11-5.59.17Z"/>
        <path class="cls-1" d="M73.9,16.11c0-.32-.06-1.34,0-1.4.2-.22,5.94-.3,5.94,0v67.06c0,.3-5.74.22-5.94,0-.06-.06,0-1.08,0-1.4.72,1.52,5.59,1.47,5.59-.17V15.41c0-.3-5.3-1.02-5.59.7Z"/>
        <path class="cls-2" d="M20.81,62.57V19.96c9.15.03,16.78,6.48,19.31,15.1,4.14,14.11-5.17,26.13-19.31,27.52Z"/>
      </g>
    </g>
  </g>
</svg>